<?xml version="1.0" encoding="UTF-8"?>
<svg xmlns="http://www.w3.org/2000/svg" xmlns:xlink="http://www.w3.org/1999/xlink" version="1.2" >
<font id="Trade Gothic Bold Condensed No. 20">
<font-face  font-family="TradeGothic" units-per-em="1000" ascent="721.924" descent="-169.922" font-style="normal" font-weight="700" font-stretch="normal" cap-height="750" x-height="500" underline-position="-75" underline-thickness="50" />
<missing-glyph  horiz-adv-x="222" d="" />
<glyph glyph-name="NULL" d="" />
<glyph glyph-name="CR" unicode="&#xd;" horiz-adv-x="250" d="" />
<glyph glyph-name="space" unicode="&#x20;" horiz-adv-x="222" d="" />
<glyph glyph-name="exclam" unicode="&#x21;" horiz-adv-x="278" d="M98 212 L180 212 L202 722 L76 722 L98 212 Z M198 0 L198 118 L80 118 L80 0 L198 0 Z " />
<glyph glyph-name="quotedbl" unicode="&#x22;" horiz-adv-x="333" d="M40 448 L134 448 L134 722 L40 722 L40 448 Z M199 448 L293 448 L293 722 L199 722 L199 448 Z " />
<glyph glyph-name="numbersign" unicode="&#x23;" horiz-adv-x="444" d="M408 292 L346 292 L362 430 L434 430 L434 508 L370 508 L395 722 L306 722 L281 508 L200 508 L225 722 L136 722 L111 508 L35 508 L35 430 L101 430 L86 292 L10 292 L10 214 L76 214 L51 0 L142 0 L166 214 L247 214 L222 0 L312 0 L336 214 L408 214 L408 292 Z M272 430 L256 292 L176 292 L192 430 L272 430 Z " />
<glyph glyph-name="dollar" unicode="&#x24;" horiz-adv-x="444" d="M192 722 C94 709 40 630 40 537 C40 440 115 378 192 331 L192 96 C153 107 126 141 113 176 L30 113 C66 57 123 7 192 0 L192 -116 L252 -116 L252 0 C357 9 414 94 414 194 C414 306 337 363 252 417 L252 624 C283 617 300 591 315 566 L391 631 C358 678 308 711 252 722 L252 810 L192 810 L192 722 Z M192 450 C161 478 142 506 142 550 C142 584 161 614 192 624 L192 450 Z M252 293 C285 263 308 238 308 189 C308 143 293 112 252 96 L252 293 Z " />
<glyph glyph-name="percent" unicode="&#x25;" horiz-adv-x="778" d="M50 558 C50 467 123 394 214 394 C305 394 378 467 378 558 C378 649 305 722 214 722 C123 722 50 649 50 558 L50 558 Z M130 558 C130 604 168 642 214 642 C260 642 298 604 298 558 C298 512 260 474 214 474 C168 474 130 512 130 558 L130 558 Z M480 164 C480 210 518 248 564 248 C610 248 648 210 648 164 C648 118 610 80 564 80 C518 80 480 118 480 164 L480 164 Z M400 164 C400 73 473 0 564 0 C655 0 728 73 728 164 C728 255 655 328 564 328 C473 328 400 255 400 164 L400 164 Z M557 732 L148 -10 L223 -10 L632 732 L557 732 Z " />
<glyph glyph-name="ampersand" unicode="&#x26;" horiz-adv-x="556" d="M192 589 C192 634 210 660 241 660 C270 660 286 638 286 582 C286 532 255 488 226 450 C209 492 192 543 192 589 L192 589 Z M404 350 C394 304 377 260 360 216 C325 261 295 311 270 363 C326 425 394 492 394 582 C394 672 338 732 247 732 C143 732 90 660 90 562 C90 499 121 421 147 363 C97 309 52 234 52 159 C52 59 120 -10 225 -10 C287 -10 327 7 367 45 C405 10 454 -9 507 -10 L507 100 C482 104 457 117 438 134 C464 196 492 257 506 323 L404 350 Z M166 175 C166 213 176 232 197 264 C223 211 258 164 296 119 C277 103 263 98 239 98 C196 98 166 133 166 175 L166 175 Z " />
<glyph glyph-name="quotesingle" unicode="&#x27;" horiz-adv-x="222" d="M64 448 L158 448 L158 722 L64 722 L64 448 Z " />
<glyph glyph-name="parenleft" unicode="&#x28;" horiz-adv-x="278" d="M150 732 C77 618 32 470 32 323 C32 176 77 28 150 -86 L246 -86 C171 30 128 174 128 323 C128 472 171 616 246 732 L150 732 Z " />
<glyph glyph-name="parenright" unicode="&#x29;" horiz-adv-x="278" d="M32 732 C107 616 150 472 150 323 C150 174 107 30 32 -86 L128 -86 C201 28 246 176 246 323 C246 470 201 618 128 732 L32 732 Z " />
<glyph glyph-name="asterisk" unicode="&#x2a;" horiz-adv-x="444" d="M372 645 C331 620 289 598 245 578 C249 627 258 675 269 722 L175 722 C186 675 195 627 199 578 C155 598 113 620 72 645 L42 556 C93 554 143 545 193 539 C158 501 122 464 82 432 L161 377 C178 425 201 471 222 517 C243 471 266 425 283 377 L362 432 C322 464 286 501 251 539 C301 545 351 554 402 556 L372 645 Z " />
<glyph glyph-name="plus" unicode="&#x2b;" horiz-adv-x="600" d="M251 302 L47 302 L47 204 L251 204 L251 0 L349 0 L349 204 L553 204 L553 302 L349 302 L349 506 L251 506 L251 302 Z " />
<glyph glyph-name="comma" unicode="&#x2c;" horiz-adv-x="222" d="M170 118 L52 118 L52 0 L97 0 L48 -124 L101 -124 L170 0 L170 118 Z " />
<glyph glyph-name="hyphen" unicode="&#x2d;" horiz-adv-x="333" d="M289 223 L289 315 L44 315 L44 223 L289 223 Z " />
<glyph glyph-name="period" unicode="&#x2e;" horiz-adv-x="222" d="M170 0 L170 118 L52 118 L52 0 L170 0 Z " />
<glyph glyph-name="slash" unicode="&#x2f;" horiz-adv-x="278" d="M-21 -10 L77 -10 L299 732 L201 732 L-21 -10 Z " />
<glyph glyph-name="zero" unicode="0" horiz-adv-x="444" d="M280 157 C280 110 259 88 222 88 C185 88 164 110 164 157 L164 565 C164 612 185 634 222 634 C259 634 280 612 280 565 L280 157 Z M46 188 C46 52 98 -10 222 -10 C346 -10 398 52 398 188 L398 534 C398 670 346 732 222 732 C98 732 46 670 46 534 L46 188 Z " />
<glyph glyph-name="one" unicode="1" horiz-adv-x="444" d="M177 0 L289 0 L289 732 L226 732 C185 697 134 667 79 639 L79 572 L177 572 L177 0 Z " />
<glyph glyph-name="two" unicode="2" horiz-adv-x="444" d="M389 0 L389 102 L170 102 C364 374 400 458 400 572 C400 656 334 732 232 732 C116 732 48 650 48 544 L48 510 L166 510 L166 559 C166 603 186 634 226 634 C260 634 282 609 282 552 C282 446 198 322 44 97 L44 0 L389 0 Z " />
<glyph glyph-name="three" unicode="3" horiz-adv-x="444" d="M46 209 L46 166 C46 42 108 -10 211 -10 C334 -10 391 58 391 202 C391 300 375 343 302 381 C366 416 380 463 380 547 C380 643 326 732 219 732 C111 732 50 662 50 564 L50 530 L162 530 L162 560 C162 617 183 634 218 634 C255 634 268 606 268 538 C268 452 240 428 167 428 L167 330 C243 330 273 306 273 228 L273 173 C273 113 250 88 214 88 C176 88 158 115 158 160 L158 209 L46 209 Z " />
<glyph glyph-name="four" unicode="4" horiz-adv-x="444" d="M111 266 L232 548 L234 548 L234 266 L111 266 Z M232 0 L346 0 L346 174 L412 174 L412 266 L346 266 L346 722 L226 722 L16 266 L16 174 L232 174 L232 0 Z " />
<glyph glyph-name="five" unicode="5" horiz-adv-x="444" d="M50 209 L50 154 C50 34 128 -10 228 -10 C348 -10 396 62 396 214 L396 314 C396 435 359 504 264 504 C226 504 200 499 169 462 L167 464 L174 620 L369 620 L373 722 L72 722 C72 551 67 463 63 351 L159 351 C170 381 188 406 226 406 C254 406 278 387 278 340 L278 176 C278 111 256 88 217 88 C184 88 162 112 162 151 L162 209 L50 209 Z " />
<glyph glyph-name="six" unicode="6" horiz-adv-x="444" d="M383 528 L383 572 C383 664 320 734 222 732 C98 732 46 670 46 534 L46 188 C46 52 98 -10 222 -10 C346 -10 398 58 398 210 L398 296 C398 402 338 444 266 444 C216 444 196 428 164 396 L164 565 C164 612 185 634 222 634 C259 634 275 612 275 565 L275 528 L383 528 Z M164 313 C179 325 206 346 228 346 C259 346 280 324 280 277 L280 157 C280 110 259 88 222 88 C185 88 164 110 164 157 L164 313 Z " />
<glyph glyph-name="seven" unicode="7" horiz-adv-x="444" d="M263 620 L118 0 L235 0 L382 652 L382 722 L56 722 L56 620 L263 620 Z " />
<glyph glyph-name="eight" unicode="8" horiz-adv-x="444" d="M46 200 C46 64 106 -10 222 -10 C338 -10 398 64 398 200 C398 288 384 346 323 385 C367 417 388 473 388 529 C388 669 324 732 222 732 C120 732 56 669 56 529 C56 473 77 417 121 385 C60 346 46 288 46 200 L46 200 Z M222 88 C174 88 158 133 158 208 C158 283 174 328 222 328 C270 328 286 283 286 208 C286 133 270 88 222 88 L222 88 Z M222 436 C184 436 168 465 168 535 C168 605 184 634 222 634 C260 634 276 605 276 535 C276 465 260 436 222 436 L222 436 Z " />
<glyph glyph-name="nine" unicode="9" horiz-adv-x="444" d="M61 194 L61 150 C61 58 124 -12 222 -10 C346 -10 398 52 398 188 L398 534 C398 670 346 732 222 732 C98 732 46 664 46 512 L46 426 C46 320 106 278 178 278 C228 278 248 294 280 326 L280 157 C280 110 259 88 222 88 C185 88 169 110 169 157 L169 194 L61 194 Z M280 409 C265 397 238 376 216 376 C185 376 164 398 164 445 L164 565 C164 612 185 634 222 634 C259 634 280 612 280 565 L280 409 Z " />
<glyph glyph-name="colon" unicode="&#x3a;" horiz-adv-x="222" d="M170 0 L170 118 L52 118 L52 0 L170 0 Z M170 278 L170 396 L52 396 L52 278 L170 278 Z " />
<glyph glyph-name="semicolon" unicode="&#x3b;" horiz-adv-x="222" d="M170 118 L52 118 L52 0 L97 0 L48 -124 L101 -124 L170 0 L170 118 Z M170 278 L170 396 L52 396 L52 278 L170 278 Z " />
<glyph glyph-name="less" unicode="&#x3c;" horiz-adv-x="600" d="M553 104 L188 253 L553 402 L553 506 L47 295 L47 211 L553 0 L553 104 Z " />
<glyph glyph-name="equal" unicode="&#x3d;" horiz-adv-x="600" d="M553 406 L47 406 L47 308 L553 308 L553 406 Z M553 198 L47 198 L47 100 L553 100 L553 198 Z " />
<glyph glyph-name="greater" unicode="&#x3e;" horiz-adv-x="600" d="M47 0 L553 211 L553 295 L47 506 L47 402 L412 253 L47 104 L47 0 Z " />
<glyph glyph-name="question" unicode="&#x3f;" horiz-adv-x="389" d="M233 212 L233 266 C233 355 264 401 295 443 C326 486 357 524 357 598 C357 675 288 732 213 732 C118 732 63 688 32 600 L128 564 C137 599 157 640 199 640 C224 640 241 619 241 595 C241 558 215 517 189 469 C163 421 137 365 137 296 L137 212 L233 212 Z M242 0 L242 118 L124 118 L124 0 L242 0 Z " />
<glyph glyph-name="at" unicode="&#x40;" horiz-adv-x="800" d="M369 233 C322 233 291 272 291 322 C291 388 342 471 415 471 C460 471 492 433 492 384 C492 316 442 233 369 233 L369 233 Z M523 496 C496 540 455 561 406 561 C276 561 191 435 191 309 C191 218 261 143 346 143 C386 143 427 168 454 198 L456 197 C458 160 483 143 513 143 C585 143 760 224 760 429 C760 611 595 732 416 732 C209 732 40 576 40 361 C40 138 209 -10 421 -10 C545 -10 655 48 723 151 L640 151 C587 98 510 68 427 68 C255 68 130 188 130 359 C130 528 244 654 415 654 C564 654 682 568 682 408 C682 302 622 225 566 225 C553 225 550 237 550 252 C550 265 554 279 557 291 L620 548 L539 548 L523 496 Z " />
<glyph glyph-name="A" unicode="A" horiz-adv-x="444" d="M221 578 L223 578 L272 268 L172 268 L221 578 Z M154 160 L290 160 L312 0 L432 0 L299 722 L145 722 L12 0 L132 0 L154 160 Z " />
<glyph glyph-name="B" unicode="B" horiz-adv-x="500" d="M184 324 L224 324 C298 324 326 287 326 213 C326 140 302 102 236 102 L184 102 L184 324 Z M184 620 L231 620 C286 620 312 585 312 518 C312 458 276 426 229 426 L184 426 L184 620 Z M60 0 L256 0 C397 0 450 90 450 209 C450 302 413 352 350 380 C410 404 436 469 436 531 C436 654 377 722 244 722 L60 722 L60 0 Z " />
<glyph glyph-name="C" unicode="C" horiz-adv-x="500" d="M434 481 L434 534 C434 642 374 732 250 732 C120 732 60 649 60 547 L60 175 C60 73 120 -10 250 -10 C374 -10 434 73 434 175 L434 258 L310 258 L310 171 C310 124 295 98 250 98 C200 98 184 124 184 178 L184 544 C184 598 200 624 250 624 C282 624 310 598 310 537 L310 481 L434 481 Z " />
<glyph glyph-name="D" unicode="D" horiz-adv-x="500" d="M184 620 L227 620 C293 620 316 595 316 519 L316 203 C316 127 293 102 227 102 L184 102 L184 620 Z M60 0 L244 0 C372 0 440 70 440 218 L440 504 C440 652 372 722 244 722 L60 722 L60 0 Z " />
<glyph glyph-name="E" unicode="E" horiz-adv-x="444" d="M406 0 L406 108 L184 108 L184 320 L344 320 L344 428 L184 428 L184 614 L392 614 L392 722 L60 722 L60 0 L406 0 Z " />
<glyph glyph-name="F" unicode="F" horiz-adv-x="444" d="M184 0 L184 320 L350 320 L350 428 L184 428 L184 614 L406 614 L406 722 L60 722 L60 0 L184 0 Z " />
<glyph glyph-name="G" unicode="G" horiz-adv-x="500" d="M231 268 L310 268 L310 198 C310 126 292 98 242 98 C199 98 184 128 184 174 L184 545 C184 606 209 624 239 624 C288 624 310 596 310 488 L428 488 L428 534 C428 642 366 732 242 732 C120 732 60 649 60 547 L60 175 C60 60 128 -10 226 -10 C284 -10 314 10 351 54 L374 0 L434 0 L434 366 L231 366 L231 268 Z " />
<glyph glyph-name="H" unicode="H" horiz-adv-x="500" d="M184 0 L184 320 L316 320 L316 0 L440 0 L440 722 L316 722 L316 428 L184 428 L184 722 L60 722 L60 0 L184 0 Z " />
<glyph glyph-name="I" unicode="I" horiz-adv-x="278" d="M201 0 L201 722 L77 722 L77 0 L201 0 Z " />
<glyph glyph-name="J" unicode="J" horiz-adv-x="278" d="M3 -10 L44 -10 C181 -10 218 52 218 144 L218 722 L94 722 L94 158 C94 118 77 98 29 98 L3 98 L3 -10 Z " />
<glyph glyph-name="K" unicode="K" horiz-adv-x="444" d="M178 0 L178 256 L222 336 L224 336 L325 0 L451 0 L300 453 L434 722 L310 722 L180 455 L178 455 L178 722 L54 722 L54 0 L178 0 Z " />
<glyph glyph-name="L" unicode="L" horiz-adv-x="389" d="M373 0 L373 108 L178 108 L178 722 L54 722 L54 0 L373 0 Z " />
<glyph glyph-name="M" unicode="M" horiz-adv-x="611" d="M394 722 L306 300 L304 300 L216 722 L53 722 L53 0 L161 0 L161 564 L163 564 L275 0 L335 0 L447 564 L449 564 L449 0 L557 0 L557 722 L394 722 Z " />
<glyph glyph-name="N" unicode="N" horiz-adv-x="500" d="M172 0 L172 451 L174 451 L332 0 L440 0 L440 722 L328 722 L328 309 L326 309 L175 722 L60 722 L60 0 L172 0 Z " />
<glyph glyph-name="O" unicode="O" horiz-adv-x="500" d="M60 175 C60 73 120 -10 250 -10 C380 -10 440 73 440 175 L440 547 C440 649 380 732 250 732 C120 732 60 649 60 547 L60 175 Z M184 544 C184 598 200 624 250 624 C300 624 316 598 316 544 L316 178 C316 124 300 98 250 98 C200 98 184 124 184 178 L184 544 Z " />
<glyph glyph-name="P" unicode="P" horiz-adv-x="500" d="M184 620 L232 620 C313 620 338 595 338 509 C338 423 313 398 232 398 L184 398 L184 620 Z M184 0 L184 296 L238 296 C391 296 462 355 462 509 C462 663 391 722 238 722 L60 722 L60 0 L184 0 Z " />
<glyph glyph-name="Q" unicode="Q" horiz-adv-x="500" d="M477 54 C464 55 447 58 419 82 C433 109 440 141 440 175 L440 547 C440 649 380 732 250 732 C120 732 60 649 60 547 L60 175 C60 73 120 -10 250 -10 C290 -10 324 -2 351 13 C395 -46 431 -54 477 -54 L477 54 Z M259 148 C267 142 278 135 292 109 C283 102 269 98 250 98 C200 98 184 124 184 178 L184 544 C184 598 200 624 250 624 C300 624 316 598 316 544 L316 214 C292 241 272 251 259 258 L259 148 Z " />
<glyph glyph-name="R" unicode="R" horiz-adv-x="500" d="M184 620 L228 620 C295 620 320 595 320 509 C320 423 295 398 228 398 L184 398 L184 620 Z M184 296 C206 296 232 297 248 299 L336 0 L462 0 L357 327 C399 346 444 393 444 509 C444 663 373 722 234 722 L60 722 L60 0 L184 0 L184 296 Z " />
<glyph glyph-name="S" unicode="S" horiz-adv-x="444" d="M404 557 C393 659 333 732 232 732 C110 732 40 667 40 552 C40 345 292 307 292 164 C292 121 263 98 220 98 C180 98 151 134 146 207 L28 190 C33 82 99 -10 214 -10 C330 -10 410 56 410 175 C410 371 158 430 158 553 C158 598 180 624 220 624 C248 624 281 606 286 544 L404 557 Z " />
<glyph glyph-name="T" unicode="T" horiz-adv-x="389" d="M132 0 L256 0 L256 614 L376 614 L376 722 L12 722 L12 614 L132 614 L132 0 Z " />
<glyph glyph-name="U" unicode="U" horiz-adv-x="500" d="M60 182 C60 58 132 -10 250 -10 C368 -10 440 58 440 182 L440 722 L316 722 L316 177 C316 124 295 98 250 98 C205 98 184 124 184 177 L184 722 L60 722 L60 182 Z " />
<glyph glyph-name="V" unicode="V" horiz-adv-x="444" d="M223 221 L221 221 L131 722 L9 722 L160 0 L284 0 L435 722 L313 722 L223 221 Z " />
<glyph glyph-name="W" unicode="W" horiz-adv-x="667" d="M194 262 L192 262 L116 722 L0 722 L137 0 L241 0 L325 477 L327 477 L417 0 L521 0 L648 722 L532 722 L463 262 L461 262 L377 722 L275 722 L194 262 Z " />
<glyph glyph-name="X" unicode="X" horiz-adv-x="444" d="M14 0 L136 0 L222 263 L224 263 L308 0 L430 0 L290 378 L415 722 L293 722 L224 493 L222 493 L146 722 L24 722 L156 378 L14 0 Z " />
<glyph glyph-name="Y" unicode="Y" horiz-adv-x="444" d="M284 300 L434 722 L308 722 L225 447 L223 447 L136 722 L10 722 L160 300 L160 0 L284 0 L284 300 Z " />
<glyph glyph-name="Z" unicode="Z" horiz-adv-x="444" d="M275 614 L44 118 L44 0 L400 0 L400 108 L172 108 L400 604 L400 722 L72 722 L72 614 L275 614 Z " />
<glyph glyph-name="bracketleft" unicode="&#x5b;" horiz-adv-x="278" d="M250 722 L36 722 L36 -76 L250 -76 L250 -28 L132 -28 L132 674 L250 674 L250 722 Z " />
<glyph glyph-name="backslash" unicode="&#x5c;" horiz-adv-x="278" d="M77 732 L-21 732 L201 -10 L299 -10 L77 732 Z " />
<glyph glyph-name="bracketright" unicode="&#x5d;" horiz-adv-x="278" d="M28 674 L146 674 L146 -28 L28 -28 L28 -76 L242 -76 L242 722 L28 722 L28 674 Z " />
<glyph glyph-name="asciicircum" unicode="&#x5e;" horiz-adv-x="600" d="M163 302 L299 604 L435 302 L544 302 L354 722 L246 722 L56 302 L163 302 Z " />
<glyph glyph-name="underscore" unicode="&#x5f;" horiz-adv-x="500" d="M500 -125 L500 -75 L0 -75 L0 -125 L500 -125 Z " />
<glyph glyph-name="grave" unicode="&#x60;" horiz-adv-x="222" d="M99 602 L182 602 L103 746 L-32 746 L99 602 Z " />
<glyph glyph-name="a" unicode="a" horiz-adv-x="444" d="M154 380 C156 426 167 456 218 456 C255 456 273 432 273 387 L273 355 C112 294 34 229 34 111 C34 42 72 -10 148 -10 C202 -10 237 8 279 42 C280 29 284 15 285 0 L392 0 C389 18 385 40 385 57 L385 402 C385 500 326 548 222 548 C117 548 48 489 42 380 L154 380 Z M273 132 C254 105 229 82 198 82 C164 82 146 96 146 131 C146 178 171 215 273 273 L273 132 Z " />
<glyph glyph-name="b" unicode="b" horiz-adv-x="444" d="M160 0 L160 56 L162 56 C199 9 226 -10 282 -10 C352 -10 396 42 396 140 L396 398 C396 496 352 548 282 548 C233 548 210 528 166 492 L166 722 L54 722 L54 0 L160 0 Z M166 428 C188 444 208 456 230 456 C260 456 284 440 284 369 L284 169 C284 98 260 82 230 82 C208 82 188 94 166 110 L166 428 Z " />
<glyph glyph-name="c" unicode="c" horiz-adv-x="444" d="M396 354 C394 469 348 548 222 548 C94 548 48 466 48 348 L48 190 C48 72 94 -10 222 -10 C350 -10 396 72 396 190 L396 204 L284 204 L284 170 C284 108 262 82 222 82 C182 82 160 108 160 170 L160 368 C160 430 182 456 222 456 C262 456 284 430 284 368 L284 354 L396 354 Z " />
<glyph glyph-name="d" unicode="d" horiz-adv-x="444" d="M390 0 L390 722 L278 722 L278 492 C234 528 211 548 162 548 C92 548 48 496 48 398 L48 140 C48 42 92 -10 162 -10 C218 -10 245 9 282 56 L284 56 L284 0 L390 0 Z M278 110 C256 94 236 82 214 82 C184 82 160 98 160 169 L160 369 C160 440 184 456 214 456 C236 456 256 444 278 428 L278 110 Z " />
<glyph glyph-name="e" unicode="e" horiz-adv-x="444" d="M160 340 L160 368 C160 430 182 456 222 456 C262 456 284 430 284 368 L284 340 L160 340 Z M396 348 C396 466 350 548 222 548 C94 548 48 466 48 348 L48 190 C48 72 94 -10 222 -10 C347 -10 394 68 396 182 L284 182 L284 170 C284 108 262 82 222 82 C182 82 160 108 160 170 L160 248 L396 248 L396 348 Z " />
<glyph glyph-name="f" unicode="f" horiz-adv-x="278" d="M76 0 L188 0 L188 446 L252 446 L252 538 L188 538 L188 604 C188 630 198 640 225 640 L257 640 L257 732 L201 732 C122 732 76 692 76 605 L76 538 L10 538 L10 446 L76 446 L76 0 Z " />
<glyph glyph-name="g" unicode="g" horiz-adv-x="444" d="M426 548 C379 548 364 534 334 490 C299 531 258 548 210 548 C84 548 36 498 36 350 C36 224 52 196 108 157 C78 140 40 107 40 70 C40 35 61 14 91 2 L91 0 C52 -9 18 -42 18 -84 C18 -140 84 -170 196 -170 C340 -170 426 -134 426 -42 C426 148 138 40 138 113 C138 126 148 135 160 138 L196 138 C310 138 366 190 366 354 C366 376 362 411 354 439 C370 452 388 456 408 456 C414 456 420 456 426 455 L426 548 Z M231 -90 C156 -90 136 -78 136 -50 C136 -22 156 -10 231 -10 C306 -10 326 -22 326 -50 C326 -78 306 -90 231 -90 L231 -90 Z M198 230 C162 230 142 252 142 343 C142 434 162 456 198 456 C242 456 254 434 254 343 C254 252 242 230 198 230 L198 230 Z " />
<glyph glyph-name="h" unicode="h" horiz-adv-x="444" d="M166 0 L166 422 C192 441 214 456 238 456 C262 456 278 444 278 417 L278 0 L390 0 L390 435 C390 505 355 548 296 548 C231 548 207 524 166 488 L166 722 L54 722 L54 0 L166 0 Z " />
<glyph glyph-name="i" unicode="i" horiz-adv-x="222" d="M167 0 L167 538 L55 538 L55 0 L167 0 Z M167 620 L167 722 L55 722 L55 620 L167 620 Z " />
<glyph glyph-name="j" unicode="j" horiz-adv-x="222" d="M0 -170 L43 -170 C112 -170 173 -138 173 -31 L173 537 L61 537 L61 -26 C61 -50 50 -68 19 -68 L0 -68 L0 -170 Z M173 620 L173 722 L61 722 L61 620 L173 620 Z " />
<glyph glyph-name="k" unicode="k" horiz-adv-x="444" d="M411 538 L291 538 L168 348 L166 348 L166 722 L54 722 L54 0 L166 0 L166 188 L219 267 L221 267 L311 0 L424 0 L294 368 L411 538 Z " />
<glyph glyph-name="l" unicode="l" horiz-adv-x="222" d="M167 0 L167 722 L55 722 L55 0 L167 0 Z " />
<glyph glyph-name="m" unicode="m" horiz-adv-x="667" d="M389 0 L389 422 C414 441 436 456 460 456 C482 456 500 444 500 417 L500 0 L612 0 L612 435 C612 505 577 548 507 548 C466 548 436 536 382 484 C358 528 340 548 284 548 C231 548 207 524 160 484 L160 538 L54 538 L54 0 L166 0 L166 422 C192 441 214 456 238 456 C260 456 277 444 277 417 L277 0 L389 0 Z " />
<glyph glyph-name="n" unicode="n" horiz-adv-x="444" d="M166 0 L166 422 C192 441 214 456 238 456 C262 456 278 444 278 417 L278 0 L390 0 L390 435 C390 505 355 548 296 548 C231 548 207 524 160 484 L160 538 L54 538 L54 0 L166 0 Z " />
<glyph glyph-name="o" unicode="o" horiz-adv-x="444" d="M284 170 C284 108 262 82 222 82 C182 82 160 108 160 170 L160 368 C160 430 182 456 222 456 C262 456 284 430 284 368 L284 170 Z M48 190 C48 72 94 -10 222 -10 C350 -10 396 72 396 190 L396 348 C396 466 350 548 222 548 C94 548 48 466 48 348 L48 190 Z " />
<glyph glyph-name="p" unicode="p" horiz-adv-x="444" d="M54 538 L54 -170 L166 -170 L166 46 C210 10 233 -10 282 -10 C352 -10 396 42 396 140 L396 398 C396 496 352 548 282 548 C226 548 199 529 162 482 L160 482 L160 538 L54 538 Z M166 428 C188 444 208 456 230 456 C260 456 284 440 284 369 L284 169 C284 98 260 82 230 82 C208 82 188 94 166 110 L166 428 Z " />
<glyph glyph-name="q" unicode="q" horiz-adv-x="444" d="M284 538 L284 482 L282 482 C245 529 218 548 162 548 C92 548 48 496 48 398 L48 140 C48 42 92 -10 162 -10 C211 -10 234 10 278 46 L278 -170 L390 -170 L390 538 L284 538 Z M278 110 C256 94 236 82 214 82 C184 82 160 98 160 169 L160 369 C160 440 184 456 214 456 C236 456 256 444 278 428 L278 110 Z " />
<glyph glyph-name="r" unicode="r" horiz-adv-x="333" d="M166 0 L166 370 C166 418 203 442 241 442 C274 442 293 436 313 431 L313 548 L290 548 C237 548 190 521 163 475 L161 475 L161 538 L54 538 L54 0 L166 0 Z " />
<glyph glyph-name="s" unicode="s" horiz-adv-x="389" d="M353 405 C336 489 277 548 189 548 C105 548 39 489 39 404 C39 257 249 222 249 129 C249 99 228 82 199 82 C148 82 132 122 125 167 L27 140 C44 46 100 -10 198 -10 C289 -10 355 39 355 135 C355 295 145 329 145 413 C145 441 165 456 194 456 C230 456 250 432 258 389 L353 405 Z " />
<glyph glyph-name="t" unicode="t" horiz-adv-x="278" d="M72 446 L72 111 C72 29 119 -10 203 -10 C231 -10 244 -8 259 -4 L259 92 L222 92 C196 92 184 108 184 136 L184 446 L259 446 L259 538 L184 538 L184 683 L72 683 L72 538 L10 538 L10 446 L72 446 Z " />
<glyph glyph-name="u" unicode="u" horiz-adv-x="444" d="M278 538 L278 116 C252 97 230 82 206 82 C182 82 166 94 166 121 L166 538 L54 538 L54 103 C54 33 89 -10 148 -10 C213 -10 237 14 284 54 L284 0 L390 0 L390 538 L278 538 Z " />
<glyph glyph-name="v" unicode="v" horiz-adv-x="389" d="M195 178 L193 178 L124 538 L10 538 L140 0 L249 0 L379 538 L265 538 L195 178 Z " />
<glyph glyph-name="w" unicode="w" horiz-adv-x="556" d="M165 202 L163 202 L114 538 L6 538 L110 0 L200 0 L273 340 L275 340 L336 0 L426 0 L550 538 L442 538 L381 202 L379 202 L319 537 L236 537 L165 202 Z " />
<glyph glyph-name="x" unicode="x" horiz-adv-x="389" d="M12 0 L128 0 L193 182 L195 182 L260 0 L376 0 L254 287 L370 538 L254 538 L194 388 L137 538 L21 538 L132 285 L12 0 Z " />
<glyph glyph-name="y" unicode="y" horiz-adv-x="389" d="M198 194 L196 194 L124 538 L10 538 L127 81 C134 55 139 32 139 10 C139 -47 121 -77 65 -77 L38 -77 L38 -169 L85 -169 C169 -169 214 -138 238 -40 L379 538 L266 538 L198 194 Z " />
<glyph glyph-name="z" unicode="z" horiz-adv-x="389" d="M235 446 L30 92 L30 0 L359 0 L359 92 L150 92 L359 446 L359 538 L44 538 L44 446 L235 446 Z " />
<glyph glyph-name="braceleft" unicode="&#x7b;" horiz-adv-x="278" d="M0 296 C29 296 56 272 56 216 L56 10 C56 -54 80 -86 160 -86 L270 -86 L270 -38 L188 -38 C161 -38 152 -18 152 12 L152 206 C152 293 100 319 76 323 L76 326 C100 329 152 359 152 440 L152 634 C152 664 161 684 188 684 L270 684 L270 732 L160 732 C80 732 56 700 56 636 L56 434 C56 378 29 354 0 354 L0 296 Z " />
<glyph glyph-name="bar" unicode="&#x7c;" horiz-adv-x="222" d="M62 -10 L160 -10 L160 732 L62 732 L62 -10 Z " />
<glyph glyph-name="braceright" unicode="&#x7d;" horiz-adv-x="278" d="M278 350 C249 350 222 374 222 430 L222 636 C222 700 198 732 118 732 L8 732 L8 684 L90 684 C117 684 126 664 126 634 L126 440 C126 353 178 327 202 323 L202 320 C178 317 126 287 126 206 L126 12 C126 -18 117 -38 90 -38 L8 -38 L8 -86 L118 -86 C198 -86 222 -54 222 10 L222 212 C222 268 249 292 278 292 L278 350 Z " />
<glyph glyph-name="asciitilde" unicode="&#x7e;" horiz-adv-x="600" d="M495 335 C472 304 447 271 407 271 C372 271 342 287 305 303 C267 320 228 335 194 335 C127 335 91 291 61 257 L105 171 C121 202 145 235 189 235 C235 235 276 220 304 204 C337 186 369 171 406 171 C468 171 501 215 539 249 L495 335 Z " />
<glyph glyph-name="exclamdown" unicode="&#xa1;" horiz-adv-x="278" d="M180 326 L98 326 L76 -184 L202 -184 L180 326 Z M80 538 L80 420 L198 420 L198 538 L80 538 Z " />
<glyph glyph-name="cent" unicode="&#xa2;" horiz-adv-x="444" d="M158 148 L156 148 C154 157 150 168 150 180 L150 378 C150 440 181 466 223 466 C229 466 234 466 239 465 L158 148 Z M401 364 C400 442 377 502 323 534 L364 684 L290 684 L255 556 C245 557 235 558 223 558 C88 558 38 476 38 358 L38 200 C38 123 59 62 112 29 L72 -116 L147 -116 L180 4 C193 1 207 0 223 0 C359 0 406 82 406 200 L406 214 L294 214 L294 180 C294 118 266 92 223 92 C211 92 200 94 191 100 L282 437 C292 423 297 404 297 378 L297 364 L401 364 Z " />
<glyph glyph-name="sterling" unicode="&#xa3;" horiz-adv-x="444" d="M35 -10 C76 -6 110 14 145 38 C180 10 222 -10 273 -10 C358 -10 406 46 406 140 L406 199 L306 199 C306 142 298 92 255 92 C230 92 205 102 185 116 C216 170 218 230 220 319 L310 319 L310 403 L211 403 C200 467 182 518 182 576 C182 620 198 640 232 640 C274 640 290 618 294 530 L396 530 C396 668 344 732 235 732 C122 732 70 670 70 567 C70 526 84 464 98 403 L35 403 L35 319 L112 319 C112 174 98 118 35 97 L35 -10 Z " />
<glyph glyph-name="currency" unicode="&#xa4;" horiz-adv-x="444" d="M436 199 L389 245 C412 277 426 318 426 361 C426 404 412 445 389 477 L436 523 L386 576 L338 528 C306 550 265 564 222 564 C178 564 137 550 105 528 L58 576 L8 523 L55 477 C32 445 18 404 18 361 C18 318 32 277 55 245 L8 199 L58 146 L105 194 C137 172 178 158 222 158 C265 158 306 172 338 194 L386 146 L436 199 Z M110 361 C110 427 160 478 222 478 C284 478 334 427 334 361 C334 295 284 244 222 244 C160 244 110 295 110 361 L110 361 Z " />
<glyph glyph-name="yen" unicode="&#xa5;" horiz-adv-x="444" d="M418 468 L331 468 L422 722 L322 722 L225 423 L223 423 L122 722 L22 722 L113 468 L26 468 L26 384 L147 384 L174 304 L26 304 L26 220 L174 220 L174 0 L270 0 L270 220 L418 220 L418 304 L270 304 L297 384 L418 384 L418 468 Z " />
<glyph glyph-name="brokenbar" unicode="&#xa6;" horiz-adv-x="222" d="M160 296 L62 296 L62 -10 L160 -10 L160 296 Z M160 732 L62 732 L62 426 L160 426 L160 732 Z " />
<glyph glyph-name="section" unicode="&#xa7;" horiz-adv-x="500" d="M402 652 C371 696 318 732 257 732 C160 732 113 680 113 610 C113 568 130 530 163 505 C98 498 52 458 52 391 C52 260 298 135 298 48 C298 14 274 -2 240 -2 C200 -2 177 28 161 58 L88 1 C139 -48 185 -80 258 -80 C335 -80 390 -25 390 54 C390 104 371 132 340 162 C409 164 448 215 448 280 C448 415 205 522 205 608 C205 639 223 654 257 654 C290 654 313 624 333 602 L402 652 Z M144 399 C144 421 160 441 188 441 C232 441 356 298 356 270 C356 247 336 226 310 226 C272 226 144 368 144 399 L144 399 Z " />
<glyph glyph-name="dieresis" unicode="&#xa8;" horiz-adv-x="222" d="M244 614 L244 722 L136 722 L136 614 L244 614 Z M-22 722 L-22 614 L86 614 L86 722 L-22 722 Z " />
<glyph glyph-name="copyright" unicode="&#xa9;" horiz-adv-x="800" d="M400 -10 C601 -10 780 135 780 361 C780 586 601 732 400 732 C199 732 20 586 20 361 C20 135 199 -10 400 -10 L400 -10 Z M682 361 C682 190 556 68 400 68 C242 68 118 190 118 361 C118 532 242 654 400 654 C556 654 682 532 682 361 L682 361 Z M514 299 C508 249 469 220 414 220 C343 220 296 285 296 365 C296 448 337 506 412 506 C463 506 504 480 514 430 L592 430 C577 531 503 584 412 584 C281 584 202 490 202 363 C202 239 286 142 414 142 C502 142 578 200 595 299 L514 299 Z " />
<glyph glyph-name="ordfeminine" unicode="&#xaa;" horiz-adv-x="266" d="M92 631 C93 655 101 672 130 672 C154 672 164 662 164 635 L164 616 C65 579 14 540 14 469 C14 427 39 396 88 396 C123 396 146 403 173 423 C174 415 177 409 177 402 L247 402 C245 413 242 426 242 436 L242 644 C242 703 204 732 136 732 C64 732 18 696 14 631 L92 631 Z M164 486 C157 470 141 456 121 456 C103 456 92 463 92 482 C92 510 103 528 164 559 L164 486 Z " />
<glyph glyph-name="guillemotleft" unicode="&#xab;" horiz-adv-x="500" d="M160 269 L277 423 L178 423 L63 270 L178 115 L274 115 L160 269 Z M327 269 L444 423 L345 423 L230 270 L345 115 L441 115 L327 269 Z " />
<glyph glyph-name="logicalnot" unicode="&#xac;" horiz-adv-x="600" d="M455 99 L553 99 L553 406 L47 406 L47 308 L455 308 L455 99 Z " />
<glyph glyph-name="registered" unicode="&#xae;" horiz-adv-x="800" d="M334 331 L386 331 L479 154 L570 154 L470 335 C524 340 570 370 570 446 C570 536 513 569 409 569 L252 569 L252 154 L334 154 L334 331 Z M334 505 L401 505 C461 505 486 492 486 453 C486 414 465 395 405 395 L334 395 L334 505 Z M400 -10 C601 -10 780 135 780 361 C780 586 601 732 400 732 C199 732 20 586 20 361 C20 135 199 -10 400 -10 L400 -10 Z M682 361 C682 190 556 68 400 68 C242 68 118 190 118 361 C118 532 242 654 400 654 C556 654 682 532 682 361 L682 361 Z " />
<glyph glyph-name="macron" unicode="&#xaf;" horiz-adv-x="222" d="M-36 637 L258 637 L258 701 L-36 701 L-36 637 Z " />
<glyph glyph-name="degree" unicode="&#xb0;" horiz-adv-x="400" d="M200 502 C152 502 118 541 118 589 C118 637 152 676 200 676 C248 676 282 637 282 589 C282 541 248 502 200 502 L200 502 Z M200 446 C281 446 344 509 344 589 C344 669 281 732 200 732 C119 732 56 669 56 589 C56 509 119 446 200 446 L200 446 Z " />
<glyph glyph-name="plusminus" unicode="&#xb1;" horiz-adv-x="600" d="M251 369 L47 369 L47 271 L251 271 L251 134 L349 134 L349 271 L553 271 L553 369 L349 369 L349 506 L251 506 L251 369 Z M47 0 L553 0 L553 98 L47 98 L47 0 Z " />
<glyph glyph-name="twosuperior" unicode="&#xb2;" horiz-adv-x="266" d="M249 292 L249 372 L123 372 C235 499 252 564 252 636 C252 687 209 732 143 732 C67 732 14 683 14 619 L14 599 L100 599 L100 618 C100 636 113 652 132 652 C151 652 160 642 160 624 C160 561 113 486 14 373 L14 292 L249 292 Z " />
<glyph glyph-name="threesuperior" unicode="&#xb3;" horiz-adv-x="266" d="M20 418 L20 393 C20 318 64 286 131 286 C219 286 256 328 256 414 C256 473 247 499 203 522 C241 543 250 571 250 621 C250 679 214 732 136 732 C66 732 23 690 23 631 L23 611 L107 611 L107 628 C107 643 115 656 132 656 C150 656 158 640 158 616 C158 567 140 558 103 558 L103 484 C142 484 160 477 160 430 L160 405 C160 377 151 366 133 366 C114 366 106 378 106 397 L106 418 L20 418 Z " />
<glyph glyph-name="acute" unicode="&#xb4;" horiz-adv-x="222" d="M254 746 L119 746 L40 602 L123 602 L254 746 Z " />
<glyph glyph-name="mu" unicode="&#xb5;" horiz-adv-x="444" d="M278 538 L278 116 C252 97 230 82 206 82 C182 82 166 94 166 121 L166 538 L54 538 L54 -170 L166 -170 L166 -10 C218 -5 242 18 284 54 L284 0 L390 0 L390 538 L278 538 Z " />
<glyph glyph-name="paragraph" unicode="&#xb6;" horiz-adv-x="500" d="M195 -80 L277 -80 L277 658 L364 658 L364 -80 L446 -80 L446 658 L502 658 L502 722 L214 722 C87 722 6 668 6 534 C6 429 78 352 195 352 L195 -80 Z " />
<glyph glyph-name="periodcentered" unicode="&#xb7;" horiz-adv-x="222" d="M44 253 C44 215 73 186 111 186 C148 186 178 215 178 253 C178 290 148 320 111 320 C73 320 44 290 44 253 L44 253 Z " />
<glyph glyph-name="cedilla" unicode="&#xb8;" horiz-adv-x="222" d="M-9 -213 C6 -220 42 -236 90 -236 C154 -236 214 -198 214 -134 C214 -84 167 -60 123 -58 C116 -58 109 -59 102 -60 L143 0 L95 0 L27 -92 L49 -110 C76 -99 132 -98 132 -139 C132 -162 108 -180 73 -180 C55 -180 24 -171 8 -163 L-9 -213 Z " />
<glyph glyph-name="onesuperior" unicode="&#xb9;" horiz-adv-x="266" d="M94 292 L190 292 L190 732 L141 732 C114 710 81 690 42 675 L42 627 L94 627 L94 292 Z " />
<glyph glyph-name="ordmasculine" unicode="&#xba;" horiz-adv-x="266" d="M164 509 C164 476 153 460 133 460 C113 460 102 476 102 509 L102 619 C102 652 113 668 133 668 C153 668 164 652 164 619 L164 509 Z M20 517 C20 446 50 396 133 396 C217 396 246 446 246 517 L246 612 C246 683 217 732 133 732 C50 732 20 683 20 612 L20 517 Z " />
<glyph glyph-name="guillemotright" unicode="&#xbb;" horiz-adv-x="500" d="M226 115 L322 115 L437 270 L322 423 L223 423 L340 269 L226 115 Z M59 115 L155 115 L270 270 L155 423 L56 423 L173 269 L59 115 Z " />
<glyph glyph-name="onequarter" unicode="&#xbc;" horiz-adv-x="666" d="M448 176 L510 309 L512 309 L512 176 L448 176 Z M512 0 L594 0 L594 100 L632 100 L632 176 L594 176 L594 433 L499 433 L370 180 L370 100 L512 100 L512 0 Z M165 -10 L575 732 L484 732 L74 -10 L165 -10 Z M102 292 L198 292 L198 731 L149 731 C122 710 89 690 50 675 L50 627 L102 627 L102 292 Z " />
<glyph glyph-name="onehalf" unicode="&#xbd;" horiz-adv-x="666" d="M157 -10 L567 732 L476 732 L66 -10 L157 -10 Z M100 292 L196 292 L196 732 L147 732 C120 710 87 690 48 675 L48 627 L100 627 L100 292 Z M633 0 L633 80 L507 80 C619 207 636 272 636 344 C636 395 593 440 527 440 C451 440 398 391 398 327 L398 307 L484 307 L484 326 C484 344 497 360 516 360 C535 360 544 350 544 332 C544 269 497 194 398 81 L398 0 L633 0 Z " />
<glyph glyph-name="threequarters" unicode="&#xbe;" horiz-adv-x="666" d="M448 176 L510 309 L512 309 L512 176 L448 176 Z M512 0 L594 0 L594 100 L632 100 L632 176 L594 176 L594 433 L499 433 L370 180 L370 100 L512 100 L512 0 Z M184 -10 L594 732 L503 732 L93 -10 L184 -10 Z M30 418 L30 393 C30 318 74 286 141 286 C229 286 266 328 266 414 C266 473 257 499 213 522 C251 543 260 571 260 621 C260 679 224 732 146 732 C76 732 33 690 33 631 L33 611 L117 611 L117 628 C117 643 125 656 142 656 C160 656 168 640 168 616 C168 567 150 558 113 558 L113 484 C152 484 170 477 170 430 L170 405 C170 377 161 366 143 366 C124 366 116 378 116 397 L116 418 L30 418 Z " />
<glyph glyph-name="questiondown" unicode="&#xbf;" horiz-adv-x="389" d="M156 326 L156 272 C156 183 125 137 94 95 C63 52 32 14 32 -60 C32 -137 101 -194 176 -194 C271 -194 326 -150 357 -62 L261 -26 C252 -61 232 -102 190 -102 C165 -102 148 -81 148 -57 C148 -20 174 21 200 69 C226 117 252 173 252 242 L252 326 L156 326 Z M147 538 L147 420 L265 420 L265 538 L147 538 Z " />
<glyph glyph-name="Agrave" unicode="&#xc0;" horiz-adv-x="444" d="M221 578 L223 578 L272 268 L172 268 L221 578 Z M154 160 L290 160 L312 0 L432 0 L299 722 L145 722 L12 0 L132 0 L154 160 Z M210 760 L293 760 L214 904 L79 904 L210 760 Z " />
<glyph glyph-name="Aacute" unicode="&#xc1;" horiz-adv-x="444" d="M221 578 L223 578 L272 268 L172 268 L221 578 Z M154 160 L290 160 L312 0 L432 0 L299 722 L145 722 L12 0 L132 0 L154 160 Z M365 904 L230 904 L151 760 L234 760 L365 904 Z " />
<glyph glyph-name="Acircumflex" unicode="&#xc2;" horiz-adv-x="444" d="M221 578 L223 578 L272 268 L172 268 L221 578 Z M154 160 L290 160 L312 0 L432 0 L299 722 L145 722 L12 0 L132 0 L154 160 Z M71 760 L163 760 L222 849 L281 760 L373 760 L277 904 L167 904 L71 760 Z " />
<glyph glyph-name="Atilde" unicode="&#xc3;" horiz-adv-x="444" d="M221 578 L223 578 L272 268 L172 268 L221 578 Z M154 160 L290 160 L312 0 L432 0 L299 722 L145 722 L12 0 L132 0 L154 160 Z M329 891 C328 862 318 847 287 847 C266 847 247 858 227 867 C207 876 186 886 162 886 C95 886 70 825 59 768 L115 768 C116 797 126 812 157 812 C178 812 197 803 217 793 C237 783 258 773 282 773 C349 773 374 834 385 891 L329 891 Z " />
<glyph glyph-name="Adieresis" unicode="&#xc4;" horiz-adv-x="444" d="M221 578 L223 578 L272 268 L172 268 L221 578 Z M154 160 L290 160 L312 0 L432 0 L299 722 L145 722 L12 0 L132 0 L154 160 Z M355 772 L355 880 L247 880 L247 772 L355 772 Z M89 880 L89 772 L197 772 L197 880 L89 880 Z " />
<glyph glyph-name="Aring" unicode="&#xc5;" horiz-adv-x="444" d="M221 578 L223 578 L272 268 L172 268 L221 578 Z M154 160 L290 160 L312 0 L432 0 L299 722 L145 722 L12 0 L132 0 L154 160 Z M120 862 C120 806 166 760 222 760 C278 760 324 806 324 862 C324 918 278 964 222 964 C166 964 120 918 120 862 L120 862 Z M170 862 C170 891 193 914 222 914 C251 914 274 891 274 862 C274 833 251 810 222 810 C193 810 170 833 170 862 L170 862 Z " />
<glyph glyph-name="AE" unicode="&#xc6;" horiz-adv-x="722" d="M224 278 L332 632 L334 632 L334 278 L224 278 Z M12 0 L138 0 L190 170 L334 170 L334 0 L684 0 L684 108 L458 108 L458 320 L622 320 L622 428 L458 428 L458 614 L670 614 L670 722 L245 722 L12 0 Z " />
<glyph glyph-name="Ccedilla" unicode="&#xc7;" horiz-adv-x="500" d="M434 481 L434 534 C434 642 374 732 250 732 C120 732 60 649 60 547 L60 175 C60 73 120 -10 250 -10 C374 -10 434 73 434 175 L434 258 L310 258 L310 171 C310 124 295 98 250 98 C200 98 184 124 184 178 L184 544 C184 598 200 624 250 624 C282 624 310 598 310 537 L310 481 L434 481 Z M130 -213 C145 -220 181 -236 229 -236 C293 -236 353 -198 353 -134 C353 -84 306 -60 262 -58 C255 -58 248 -59 241 -60 L282 0 L234 0 L166 -92 L188 -110 C215 -99 271 -98 271 -139 C271 -162 247 -180 212 -180 C194 -180 163 -171 147 -163 L130 -213 Z " />
<glyph glyph-name="Egrave" unicode="&#xc8;" horiz-adv-x="444" d="M406 0 L406 108 L184 108 L184 320 L344 320 L344 428 L184 428 L184 614 L392 614 L392 722 L60 722 L60 0 L406 0 Z M222 760 L305 760 L226 904 L91 904 L222 760 Z " />
<glyph glyph-name="Eacute" unicode="&#xc9;" horiz-adv-x="444" d="M406 0 L406 108 L184 108 L184 320 L344 320 L344 428 L184 428 L184 614 L392 614 L392 722 L60 722 L60 0 L406 0 Z M377 904 L242 904 L163 760 L246 760 L377 904 Z " />
<glyph glyph-name="Ecircumflex" unicode="&#xca;" horiz-adv-x="444" d="M406 0 L406 108 L184 108 L184 320 L344 320 L344 428 L184 428 L184 614 L392 614 L392 722 L60 722 L60 0 L406 0 Z M83 760 L175 760 L234 849 L293 760 L385 760 L289 904 L179 904 L83 760 Z " />
<glyph glyph-name="Edieresis" unicode="&#xcb;" horiz-adv-x="444" d="M406 0 L406 108 L184 108 L184 320 L344 320 L344 428 L184 428 L184 614 L392 614 L392 722 L60 722 L60 0 L406 0 Z M367 772 L367 880 L259 880 L259 772 L367 772 Z M101 880 L101 772 L209 772 L209 880 L101 880 Z " />
<glyph glyph-name="Igrave" unicode="&#xcc;" horiz-adv-x="278" d="M201 0 L201 722 L77 722 L77 0 L201 0 Z M127 760 L210 760 L131 904 L-4 904 L127 760 Z " />
<glyph glyph-name="Iacute" unicode="&#xcd;" horiz-adv-x="278" d="M201 0 L201 722 L77 722 L77 0 L201 0 Z M282 904 L147 904 L68 760 L151 760 L282 904 Z " />
<glyph glyph-name="Icircumflex" unicode="&#xce;" horiz-adv-x="278" d="M201 0 L201 722 L77 722 L77 0 L201 0 Z M-12 760 L80 760 L139 849 L198 760 L290 760 L194 904 L84 904 L-12 760 Z " />
<glyph glyph-name="Idieresis" unicode="&#xcf;" horiz-adv-x="278" d="M201 0 L201 722 L77 722 L77 0 L201 0 Z M272 772 L272 880 L164 880 L164 772 L272 772 Z M6 880 L6 772 L114 772 L114 880 L6 880 Z " />
<glyph glyph-name="Eth" unicode="&#xd0;" horiz-adv-x="500" d="M20 320 L60 320 L60 0 L244 0 C372 0 440 70 440 218 L440 504 C440 652 372 722 244 722 L60 722 L60 428 L20 428 L20 320 Z M258 428 L184 428 L184 620 L227 620 C293 620 316 595 316 519 L316 203 C316 127 293 102 227 102 L184 102 L184 320 L258 320 L258 428 Z " />
<glyph glyph-name="Ntilde" unicode="&#xd1;" horiz-adv-x="500" d="M172 0 L172 451 L174 451 L332 0 L440 0 L440 722 L328 722 L328 309 L326 309 L175 722 L60 722 L60 0 L172 0 Z M357 891 C356 862 346 847 315 847 C294 847 275 858 255 867 C235 876 214 886 190 886 C123 886 98 825 87 768 L143 768 C144 797 154 812 185 812 C206 812 225 803 245 793 C265 783 286 773 310 773 C377 773 402 834 413 891 L357 891 Z " />
<glyph glyph-name="Ograve" unicode="&#xd2;" horiz-adv-x="500" d="M60 175 C60 73 120 -10 250 -10 C380 -10 440 73 440 175 L440 547 C440 649 380 732 250 732 C120 732 60 649 60 547 L60 175 Z M184 544 C184 598 200 624 250 624 C300 624 316 598 316 544 L316 178 C316 124 300 98 250 98 C200 98 184 124 184 178 L184 544 Z M238 760 L321 760 L242 904 L107 904 L238 760 Z " />
<glyph glyph-name="Oacute" unicode="&#xd3;" horiz-adv-x="500" d="M60 175 C60 73 120 -10 250 -10 C380 -10 440 73 440 175 L440 547 C440 649 380 732 250 732 C120 732 60 649 60 547 L60 175 Z M184 544 C184 598 200 624 250 624 C300 624 316 598 316 544 L316 178 C316 124 300 98 250 98 C200 98 184 124 184 178 L184 544 Z M393 904 L258 904 L179 760 L262 760 L393 904 Z " />
<glyph glyph-name="Ocircumflex" unicode="&#xd4;" horiz-adv-x="500" d="M60 175 C60 73 120 -10 250 -10 C380 -10 440 73 440 175 L440 547 C440 649 380 732 250 732 C120 732 60 649 60 547 L60 175 Z M184 544 C184 598 200 624 250 624 C300 624 316 598 316 544 L316 178 C316 124 300 98 250 98 C200 98 184 124 184 178 L184 544 Z M99 760 L191 760 L250 849 L309 760 L401 760 L305 904 L195 904 L99 760 Z " />
<glyph glyph-name="Otilde" unicode="&#xd5;" horiz-adv-x="500" d="M60 175 C60 73 120 -10 250 -10 C380 -10 440 73 440 175 L440 547 C440 649 380 732 250 732 C120 732 60 649 60 547 L60 175 Z M184 544 C184 598 200 624 250 624 C300 624 316 598 316 544 L316 178 C316 124 300 98 250 98 C200 98 184 124 184 178 L184 544 Z M357 891 C356 862 346 847 315 847 C294 847 275 858 255 867 C235 876 214 886 190 886 C123 886 98 825 87 768 L143 768 C144 797 154 812 185 812 C206 812 225 803 245 793 C265 783 286 773 310 773 C377 773 402 834 413 891 L357 891 Z " />
<glyph glyph-name="Odieresis" unicode="&#xd6;" horiz-adv-x="500" d="M60 175 C60 73 120 -10 250 -10 C380 -10 440 73 440 175 L440 547 C440 649 380 732 250 732 C120 732 60 649 60 547 L60 175 Z M184 544 C184 598 200 624 250 624 C300 624 316 598 316 544 L316 178 C316 124 300 98 250 98 C200 98 184 124 184 178 L184 544 Z M383 772 L383 880 L275 880 L275 772 L383 772 Z M117 880 L117 772 L225 772 L225 880 L117 880 Z " />
<glyph glyph-name="multiply" unicode="&#xd7;" horiz-adv-x="600" d="M553 437 L484 506 L300 322 L116 506 L47 437 L231 253 L47 70 L116 0 L300 184 L484 0 L553 70 L370 253 L553 437 Z " />
<glyph glyph-name="Oslash" unicode="&#xd8;" horiz-adv-x="500" d="M186 257 L184 257 L184 544 C184 598 200 624 250 624 C287 624 305 610 312 582 L186 257 Z M314 424 L316 424 L316 178 C316 124 300 98 250 98 C223 98 205 106 197 121 L314 424 Z M160 7 C185 -4 215 -10 250 -10 C380 -10 440 73 440 175 L440 547 C440 586 431 623 413 652 L472 804 L391 804 L353 708 C325 724 291 732 250 732 C120 732 60 649 60 547 L60 175 C60 129 72 88 97 56 L28 -120 L110 -120 L160 7 Z " />
<glyph glyph-name="Ugrave" unicode="&#xd9;" horiz-adv-x="500" d="M60 182 C60 58 132 -10 250 -10 C368 -10 440 58 440 182 L440 722 L316 722 L316 177 C316 124 295 98 250 98 C205 98 184 124 184 177 L184 722 L60 722 L60 182 Z M238 760 L321 760 L242 904 L107 904 L238 760 Z " />
<glyph glyph-name="Uacute" unicode="&#xda;" horiz-adv-x="500" d="M60 182 C60 58 132 -10 250 -10 C368 -10 440 58 440 182 L440 722 L316 722 L316 177 C316 124 295 98 250 98 C205 98 184 124 184 177 L184 722 L60 722 L60 182 Z M393 904 L258 904 L179 760 L262 760 L393 904 Z " />
<glyph glyph-name="Ucircumflex" unicode="&#xdb;" horiz-adv-x="500" d="M60 182 C60 58 132 -10 250 -10 C368 -10 440 58 440 182 L440 722 L316 722 L316 177 C316 124 295 98 250 98 C205 98 184 124 184 177 L184 722 L60 722 L60 182 Z M99 760 L191 760 L250 849 L309 760 L401 760 L305 904 L195 904 L99 760 Z " />
<glyph glyph-name="Udieresis" unicode="&#xdc;" horiz-adv-x="500" d="M60 182 C60 58 132 -10 250 -10 C368 -10 440 58 440 182 L440 722 L316 722 L316 177 C316 124 295 98 250 98 C205 98 184 124 184 177 L184 722 L60 722 L60 182 Z M383 772 L383 880 L275 880 L275 772 L383 772 Z M117 880 L117 772 L225 772 L225 880 L117 880 Z " />
<glyph glyph-name="Yacute" unicode="&#xdd;" horiz-adv-x="444" d="M284 300 L434 722 L308 722 L225 447 L223 447 L136 722 L10 722 L160 300 L160 0 L284 0 L284 300 Z M365 904 L230 904 L151 760 L234 760 L365 904 Z " />
<glyph glyph-name="Thorn" unicode="&#xde;" horiz-adv-x="500" d="M184 722 L60 722 L60 0 L184 0 L184 156 L238 156 C391 156 462 215 462 369 C462 523 391 582 238 582 L184 582 L184 722 Z M184 480 L232 480 C313 480 338 455 338 369 C338 283 313 258 232 258 L184 258 L184 480 Z " />
<glyph glyph-name="germandbls" unicode="&#xdf;" horiz-adv-x="444" d="M166 0 L166 562 C166 614 181 636 219 636 C254 636 271 618 271 572 L271 502 C271 448 263 436 224 430 L224 338 C264 338 286 314 286 260 L286 159 C286 114 277 92 247 92 C237 92 228 93 220 95 L220 0 L286 0 C360 0 402 46 402 204 C402 319 373 375 310 395 L310 397 C362 404 383 452 383 531 C383 641 347 728 213 728 C112 728 54 665 54 540 L54 0 L166 0 Z " />
<glyph glyph-name="agrave" unicode="&#xe0;" horiz-adv-x="444" d="M154 380 C156 426 167 456 218 456 C255 456 273 432 273 387 L273 355 C112 294 34 229 34 111 C34 42 72 -10 148 -10 C202 -10 237 8 279 42 C280 29 284 15 285 0 L392 0 C389 18 385 40 385 57 L385 402 C385 500 326 548 222 548 C117 548 48 489 42 380 L154 380 Z M273 132 C254 105 229 82 198 82 C164 82 146 96 146 131 C146 178 171 215 273 273 L273 132 Z M210 602 L293 602 L214 746 L79 746 L210 602 Z " />
<glyph glyph-name="aacute" unicode="&#xe1;" horiz-adv-x="444" d="M154 380 C156 426 167 456 218 456 C255 456 273 432 273 387 L273 355 C112 294 34 229 34 111 C34 42 72 -10 148 -10 C202 -10 237 8 279 42 C280 29 284 15 285 0 L392 0 C389 18 385 40 385 57 L385 402 C385 500 326 548 222 548 C117 548 48 489 42 380 L154 380 Z M273 132 C254 105 229 82 198 82 C164 82 146 96 146 131 C146 178 171 215 273 273 L273 132 Z M365 746 L230 746 L151 602 L234 602 L365 746 Z " />
<glyph glyph-name="acircumflex" unicode="&#xe2;" horiz-adv-x="444" d="M154 380 C156 426 167 456 218 456 C255 456 273 432 273 387 L273 355 C112 294 34 229 34 111 C34 42 72 -10 148 -10 C202 -10 237 8 279 42 C280 29 284 15 285 0 L392 0 C389 18 385 40 385 57 L385 402 C385 500 326 548 222 548 C117 548 48 489 42 380 L154 380 Z M273 132 C254 105 229 82 198 82 C164 82 146 96 146 131 C146 178 171 215 273 273 L273 132 Z M71 602 L163 602 L222 691 L281 602 L373 602 L277 746 L167 746 L71 602 Z " />
<glyph glyph-name="atilde" unicode="&#xe3;" horiz-adv-x="444" d="M154 380 C156 426 167 456 218 456 C255 456 273 432 273 387 L273 355 C112 294 34 229 34 111 C34 42 72 -10 148 -10 C202 -10 237 8 279 42 C280 29 284 15 285 0 L392 0 C389 18 385 40 385 57 L385 402 C385 500 326 548 222 548 C117 548 48 489 42 380 L154 380 Z M273 132 C254 105 229 82 198 82 C164 82 146 96 146 131 C146 178 171 215 273 273 L273 132 Z M329 733 C328 704 318 689 287 689 C266 689 247 700 227 709 C207 718 186 728 162 728 C95 728 70 667 59 610 L115 610 C116 639 126 654 157 654 C178 654 197 645 217 635 C237 625 258 615 282 615 C349 615 374 676 385 733 L329 733 Z " />
<glyph glyph-name="adieresis" unicode="&#xe4;" horiz-adv-x="444" d="M154 380 C156 426 167 456 218 456 C255 456 273 432 273 387 L273 355 C112 294 34 229 34 111 C34 42 72 -10 148 -10 C202 -10 237 8 279 42 C280 29 284 15 285 0 L392 0 C389 18 385 40 385 57 L385 402 C385 500 326 548 222 548 C117 548 48 489 42 380 L154 380 Z M273 132 C254 105 229 82 198 82 C164 82 146 96 146 131 C146 178 171 215 273 273 L273 132 Z M355 614 L355 722 L247 722 L247 614 L355 614 Z M89 722 L89 614 L197 614 L197 722 L89 722 Z " />
<glyph glyph-name="aring" unicode="&#xe5;" horiz-adv-x="444" d="M154 380 C156 426 167 456 218 456 C255 456 273 432 273 387 L273 355 C112 294 34 229 34 111 C34 42 72 -10 148 -10 C202 -10 237 8 279 42 C280 29 284 15 285 0 L392 0 C389 18 385 40 385 57 L385 402 C385 500 326 548 222 548 C117 548 48 489 42 380 L154 380 Z M273 132 C254 105 229 82 198 82 C164 82 146 96 146 131 C146 178 171 215 273 273 L273 132 Z M120 704 C120 648 166 602 222 602 C278 602 324 648 324 704 C324 760 278 806 222 806 C166 806 120 760 120 704 L120 704 Z M170 704 C170 733 193 756 222 756 C251 756 274 733 274 704 C274 675 251 652 222 652 C193 652 170 675 170 704 L170 704 Z " />
<glyph glyph-name="ae" unicode="&#xe6;" horiz-adv-x="667" d="M272 132 C254 105 229 82 198 82 C164 82 146 96 146 131 C146 178 171 215 272 273 L272 132 Z M384 340 L384 368 C384 430 405 456 445 456 C485 456 507 430 507 368 L507 340 L384 340 Z M619 248 L619 348 C619 466 573 548 454 548 C403 548 362 533 335 498 C308 530 264 548 206 548 C117 548 48 489 42 380 L154 380 C156 426 167 456 218 456 C255 456 272 432 272 387 L272 355 C112 294 34 229 34 111 C34 42 72 -10 160 -10 C193 -10 236 -5 309 60 C334 18 379 -10 445 -10 C570 -10 617 68 619 182 L507 182 L507 170 C507 108 485 82 445 82 C405 82 384 108 384 170 L384 248 L619 248 Z " />
<glyph glyph-name="ccedilla" unicode="&#xe7;" horiz-adv-x="444" d="M396 354 C394 469 348 548 222 548 C94 548 48 466 48 348 L48 190 C48 72 94 -10 222 -10 C350 -10 396 72 396 190 L396 204 L284 204 L284 170 C284 108 262 82 222 82 C182 82 160 108 160 170 L160 368 C160 430 182 456 222 456 C262 456 284 430 284 368 L284 354 L396 354 Z M102 -213 C117 -220 153 -236 201 -236 C265 -236 325 -198 325 -134 C325 -84 278 -60 234 -58 C227 -58 220 -59 213 -60 L254 0 L206 0 L138 -92 L160 -110 C187 -99 243 -98 243 -139 C243 -162 219 -180 184 -180 C166 -180 135 -171 119 -163 L102 -213 Z " />
<glyph glyph-name="egrave" unicode="&#xe8;" horiz-adv-x="444" d="M160 340 L160 368 C160 430 182 456 222 456 C262 456 284 430 284 368 L284 340 L160 340 Z M396 348 C396 466 350 548 222 548 C94 548 48 466 48 348 L48 190 C48 72 94 -10 222 -10 C347 -10 394 68 396 182 L284 182 L284 170 C284 108 262 82 222 82 C182 82 160 108 160 170 L160 248 L396 248 L396 348 Z M210 602 L293 602 L214 746 L79 746 L210 602 Z " />
<glyph glyph-name="eacute" unicode="&#xe9;" horiz-adv-x="444" d="M160 340 L160 368 C160 430 182 456 222 456 C262 456 284 430 284 368 L284 340 L160 340 Z M396 348 C396 466 350 548 222 548 C94 548 48 466 48 348 L48 190 C48 72 94 -10 222 -10 C347 -10 394 68 396 182 L284 182 L284 170 C284 108 262 82 222 82 C182 82 160 108 160 170 L160 248 L396 248 L396 348 Z M365 746 L230 746 L151 602 L234 602 L365 746 Z " />
<glyph glyph-name="ecircumflex" unicode="&#xea;" horiz-adv-x="444" d="M160 340 L160 368 C160 430 182 456 222 456 C262 456 284 430 284 368 L284 340 L160 340 Z M396 348 C396 466 350 548 222 548 C94 548 48 466 48 348 L48 190 C48 72 94 -10 222 -10 C347 -10 394 68 396 182 L284 182 L284 170 C284 108 262 82 222 82 C182 82 160 108 160 170 L160 248 L396 248 L396 348 Z M71 602 L163 602 L222 691 L281 602 L373 602 L277 746 L167 746 L71 602 Z " />
<glyph glyph-name="edieresis" unicode="&#xeb;" horiz-adv-x="444" d="M160 340 L160 368 C160 430 182 456 222 456 C262 456 284 430 284 368 L284 340 L160 340 Z M396 348 C396 466 350 548 222 548 C94 548 48 466 48 348 L48 190 C48 72 94 -10 222 -10 C347 -10 394 68 396 182 L284 182 L284 170 C284 108 262 82 222 82 C182 82 160 108 160 170 L160 248 L396 248 L396 348 Z M355 614 L355 722 L247 722 L247 614 L355 614 Z M89 722 L89 614 L197 614 L197 722 L89 722 Z " />
<glyph glyph-name="igrave" unicode="&#xec;" horiz-adv-x="222" d="M167 0 L167 538 L55 538 L55 0 L167 0 Z M99 602 L182 602 L103 746 L-32 746 L99 602 Z " />
<glyph glyph-name="iacute" unicode="&#xed;" horiz-adv-x="222" d="M167 0 L167 538 L55 538 L55 0 L167 0 Z M254 746 L119 746 L40 602 L123 602 L254 746 Z " />
<glyph glyph-name="icircumflex" unicode="&#xee;" horiz-adv-x="222" d="M167 0 L167 538 L55 538 L55 0 L167 0 Z M-40 602 L52 602 L111 691 L170 602 L262 602 L166 746 L56 746 L-40 602 Z " />
<glyph glyph-name="idieresis" unicode="&#xef;" horiz-adv-x="222" d="M167 0 L167 538 L55 538 L55 0 L167 0 Z M244 614 L244 722 L136 722 L136 614 L244 614 Z M-22 722 L-22 614 L86 614 L86 722 L-22 722 Z " />
<glyph glyph-name="eth" unicode="&#xf0;" horiz-adv-x="444" d="M284 163 C284 106 262 82 222 82 C182 82 160 106 160 163 L160 325 C160 382 182 406 222 406 C262 406 284 382 284 325 L284 163 Z M386 718 L277 676 C263 694 247 710 230 722 L144 698 C162 682 178 662 191 643 L98 608 L125 536 L230 576 C242 554 256 526 259 496 C245 497 234 498 222 498 C94 498 48 423 48 314 L48 174 C48 65 94 -10 222 -10 C350 -10 396 65 396 174 L396 314 C396 428 365 533 321 611 L416 648 L386 718 Z " />
<glyph glyph-name="ntilde" unicode="&#xf1;" horiz-adv-x="444" d="M166 0 L166 422 C192 441 214 456 238 456 C262 456 278 444 278 417 L278 0 L390 0 L390 435 C390 505 355 548 296 548 C231 548 207 524 160 484 L160 538 L54 538 L54 0 L166 0 Z M329 733 C328 704 318 689 287 689 C266 689 247 700 227 709 C207 718 186 728 162 728 C95 728 70 667 59 610 L115 610 C116 639 126 654 157 654 C178 654 197 645 217 635 C237 625 258 615 282 615 C349 615 374 676 385 733 L329 733 Z " />
<glyph glyph-name="ograve" unicode="&#xf2;" horiz-adv-x="444" d="M284 170 C284 108 262 82 222 82 C182 82 160 108 160 170 L160 368 C160 430 182 456 222 456 C262 456 284 430 284 368 L284 170 Z M48 190 C48 72 94 -10 222 -10 C350 -10 396 72 396 190 L396 348 C396 466 350 548 222 548 C94 548 48 466 48 348 L48 190 Z M210 602 L293 602 L214 746 L79 746 L210 602 Z " />
<glyph glyph-name="oacute" unicode="&#xf3;" horiz-adv-x="444" d="M284 170 C284 108 262 82 222 82 C182 82 160 108 160 170 L160 368 C160 430 182 456 222 456 C262 456 284 430 284 368 L284 170 Z M48 190 C48 72 94 -10 222 -10 C350 -10 396 72 396 190 L396 348 C396 466 350 548 222 548 C94 548 48 466 48 348 L48 190 Z M365 746 L230 746 L151 602 L234 602 L365 746 Z " />
<glyph glyph-name="ocircumflex" unicode="&#xf4;" horiz-adv-x="444" d="M284 170 C284 108 262 82 222 82 C182 82 160 108 160 170 L160 368 C160 430 182 456 222 456 C262 456 284 430 284 368 L284 170 Z M48 190 C48 72 94 -10 222 -10 C350 -10 396 72 396 190 L396 348 C396 466 350 548 222 548 C94 548 48 466 48 348 L48 190 Z M71 602 L163 602 L222 691 L281 602 L373 602 L277 746 L167 746 L71 602 Z " />
<glyph glyph-name="otilde" unicode="&#xf5;" horiz-adv-x="444" d="M284 170 C284 108 262 82 222 82 C182 82 160 108 160 170 L160 368 C160 430 182 456 222 456 C262 456 284 430 284 368 L284 170 Z M48 190 C48 72 94 -10 222 -10 C350 -10 396 72 396 190 L396 348 C396 466 350 548 222 548 C94 548 48 466 48 348 L48 190 Z M329 733 C328 704 318 689 287 689 C266 689 247 700 227 709 C207 718 186 728 162 728 C95 728 70 667 59 610 L115 610 C116 639 126 654 157 654 C178 654 197 645 217 635 C237 625 258 615 282 615 C349 615 374 676 385 733 L329 733 Z " />
<glyph glyph-name="odieresis" unicode="&#xf6;" horiz-adv-x="444" d="M284 170 C284 108 262 82 222 82 C182 82 160 108 160 170 L160 368 C160 430 182 456 222 456 C262 456 284 430 284 368 L284 170 Z M48 190 C48 72 94 -10 222 -10 C350 -10 396 72 396 190 L396 348 C396 466 350 548 222 548 C94 548 48 466 48 348 L48 190 Z M355 614 L355 722 L247 722 L247 614 L355 614 Z M89 722 L89 614 L197 614 L197 722 L89 722 Z " />
<glyph glyph-name="divide" unicode="&#xf7;" horiz-adv-x="600" d="M553 204 L553 302 L47 302 L47 204 L553 204 Z M220 460 C220 416 256 380 300 380 C344 380 380 416 380 460 C380 504 344 540 300 540 C256 540 220 504 220 460 L220 460 Z M220 46 C220 2 256 -34 300 -34 C344 -34 380 2 380 46 C380 90 344 126 300 126 C256 126 220 90 220 46 L220 46 Z " />
<glyph glyph-name="oslash" unicode="&#xf8;" horiz-adv-x="444" d="M282 353 L284 353 L284 170 C284 108 262 82 222 82 C207 82 195 86 184 94 L282 353 Z M153 1 C172 -6 195 -10 222 -10 C350 -10 396 72 396 190 L396 348 C396 413 382 467 348 503 L402 646 L334 646 L293 537 C272 544 249 548 222 548 C94 548 48 466 48 348 L48 190 C48 124 63 69 100 33 L42 -120 L108 -120 L153 1 Z M162 173 L160 173 L160 368 C160 430 182 456 222 456 C238 456 252 452 262 442 L162 173 Z " />
<glyph glyph-name="ugrave" unicode="&#xf9;" horiz-adv-x="444" d="M278 538 L278 116 C252 97 230 82 206 82 C182 82 166 94 166 121 L166 538 L54 538 L54 103 C54 33 89 -10 148 -10 C213 -10 237 14 284 54 L284 0 L390 0 L390 538 L278 538 Z M210 602 L293 602 L214 746 L79 746 L210 602 Z " />
<glyph glyph-name="uacute" unicode="&#xfa;" horiz-adv-x="444" d="M278 538 L278 116 C252 97 230 82 206 82 C182 82 166 94 166 121 L166 538 L54 538 L54 103 C54 33 89 -10 148 -10 C213 -10 237 14 284 54 L284 0 L390 0 L390 538 L278 538 Z M365 746 L230 746 L151 602 L234 602 L365 746 Z " />
<glyph glyph-name="ucircumflex" unicode="&#xfb;" horiz-adv-x="444" d="M278 538 L278 116 C252 97 230 82 206 82 C182 82 166 94 166 121 L166 538 L54 538 L54 103 C54 33 89 -10 148 -10 C213 -10 237 14 284 54 L284 0 L390 0 L390 538 L278 538 Z M71 602 L163 602 L222 691 L281 602 L373 602 L277 746 L167 746 L71 602 Z " />
<glyph glyph-name="udieresis" unicode="&#xfc;" horiz-adv-x="444" d="M278 538 L278 116 C252 97 230 82 206 82 C182 82 166 94 166 121 L166 538 L54 538 L54 103 C54 33 89 -10 148 -10 C213 -10 237 14 284 54 L284 0 L390 0 L390 538 L278 538 Z M355 614 L355 722 L247 722 L247 614 L355 614 Z M89 722 L89 614 L197 614 L197 722 L89 722 Z " />
<glyph glyph-name="yacute" unicode="&#xfd;" horiz-adv-x="389" d="M198 194 L196 194 L124 538 L10 538 L127 81 C134 55 139 32 139 10 C139 -47 121 -77 65 -77 L38 -77 L38 -169 L85 -169 C169 -169 214 -138 238 -40 L379 538 L266 538 L198 194 Z M338 746 L203 746 L124 602 L207 602 L338 746 Z " />
<glyph glyph-name="thorn" unicode="&#xfe;" horiz-adv-x="444" d="M54 722 L54 -170 L166 -170 L166 46 C210 10 233 -10 282 -10 C352 -10 396 42 396 140 L396 398 C396 496 352 548 282 548 C226 548 199 529 168 487 L166 487 L166 722 L54 722 Z M166 428 C188 444 208 456 230 456 C260 456 284 440 284 369 L284 169 C284 98 260 82 230 82 C208 82 188 94 166 110 L166 428 Z " />
<glyph glyph-name="ydieresis" unicode="&#xff;" horiz-adv-x="389" d="M198 194 L196 194 L124 538 L10 538 L127 81 C134 55 139 32 139 10 C139 -47 121 -77 65 -77 L38 -77 L38 -169 L85 -169 C169 -169 214 -138 238 -40 L379 538 L266 538 L198 194 Z M328 614 L328 722 L220 722 L220 614 L328 614 Z M62 722 L62 614 L170 614 L170 722 L62 722 Z " />
<glyph glyph-name="dotlessi" unicode="&#x131;" horiz-adv-x="222" d="M167 0 L167 538 L55 538 L55 0 L167 0 Z " />
<glyph glyph-name="Lslash" unicode="&#x141;" horiz-adv-x="389" d="M178 339 L294 386 L294 468 L178 421 L178 722 L54 722 L54 372 L0 350 L0 268 L54 290 L54 0 L373 0 L373 108 L178 108 L178 339 Z " />
<glyph glyph-name="lslash" unicode="&#x142;" horiz-adv-x="222" d="M167 390 L237 426 L237 500 L167 464 L167 722 L55 722 L55 407 L-15 371 L-15 297 L55 333 L55 0 L167 0 L167 390 Z " />
<glyph glyph-name="OE" unicode="&#x152;" horiz-adv-x="722" d="M330 185 C330 131 302 110 261 110 C206 110 184 149 184 205 L184 520 C184 576 206 615 261 615 C302 615 330 594 330 540 L330 185 Z M684 0 L684 108 L454 108 L454 320 L622 320 L622 428 L454 428 L454 614 L670 614 L670 722 L270 722 C132 722 60 644 60 502 L60 220 C60 78 132 0 270 0 L684 0 Z " />
<glyph glyph-name="oe" unicode="&#x153;" horiz-adv-x="667" d="M278 170 C278 108 256 82 222 82 C182 82 160 108 160 170 L160 368 C160 430 182 456 222 456 C256 456 278 430 278 368 L278 170 Z M390 340 L390 368 C390 430 405 456 445 456 C485 456 507 430 507 368 L507 340 L390 340 Z M619 248 L619 348 C619 466 573 548 457 548 C401 548 362 528 338 487 C317 528 279 548 210 548 C94 548 48 466 48 348 L48 190 C48 72 94 -10 210 -10 C277 -10 315 13 336 52 C358 13 396 -10 457 -10 C570 -10 617 68 619 182 L507 182 L507 170 C507 108 485 82 445 82 C405 82 390 108 390 170 L390 248 L619 248 Z " />
<glyph glyph-name="Scaron" unicode="&#x160;" horiz-adv-x="444" d="M404 557 C393 659 333 732 232 732 C110 732 40 667 40 552 C40 345 292 307 292 164 C292 121 263 98 220 98 C180 98 151 134 146 207 L28 190 C33 82 99 -10 214 -10 C330 -10 410 56 410 175 C410 371 158 430 158 553 C158 598 180 624 220 624 C248 624 281 606 286 544 L404 557 Z M373 904 L281 904 L222 815 L163 904 L71 904 L167 760 L277 760 L373 904 Z " />
<glyph glyph-name="scaron" unicode="&#x161;" horiz-adv-x="389" d="M353 405 C336 489 277 548 189 548 C105 548 39 489 39 404 C39 257 249 222 249 129 C249 99 228 82 199 82 C148 82 132 122 125 167 L27 140 C44 46 100 -10 198 -10 C289 -10 355 39 355 135 C355 295 145 329 145 413 C145 441 165 456 194 456 C230 456 250 432 258 389 L353 405 Z M346 746 L254 746 L195 657 L136 746 L44 746 L140 602 L250 602 L346 746 Z " />
<glyph glyph-name="Ydieresis" unicode="&#x178;" horiz-adv-x="444" d="M284 300 L434 722 L308 722 L225 447 L223 447 L136 722 L10 722 L160 300 L160 0 L284 0 L284 300 Z M355 772 L355 880 L247 880 L247 772 L355 772 Z M89 880 L89 772 L197 772 L197 880 L89 880 Z " />
<glyph glyph-name="Zcaron" unicode="&#x17d;" horiz-adv-x="444" d="M275 614 L44 118 L44 0 L400 0 L400 108 L172 108 L400 604 L400 722 L72 722 L72 614 L275 614 Z M373 904 L281 904 L222 815 L163 904 L71 904 L167 760 L277 760 L373 904 Z " />
<glyph glyph-name="zcaron" unicode="&#x17e;" horiz-adv-x="389" d="M235 446 L30 92 L30 0 L359 0 L359 92 L150 92 L359 446 L359 538 L44 538 L44 446 L235 446 Z M346 746 L254 746 L195 657 L136 746 L44 746 L140 602 L250 602 L346 746 Z " />
<glyph glyph-name="florin" unicode="&#x192;" horiz-adv-x="444" d="M34 -165 C46 -168 60 -170 73 -170 C230 -170 256 24 276 362 L382 362 L382 446 L280 446 C284 606 316 646 359 646 C378 646 394 642 410 633 L410 727 C394 729 379 732 363 732 C264 732 186 660 174 446 L74 446 L74 362 L167 362 C142 -14 134 -78 63 -78 C53 -78 42 -77 34 -73 L34 -165 Z " />
<glyph glyph-name="circumflex" unicode="&#x2c6;" horiz-adv-x="222" d="M-40 602 L52 602 L111 691 L170 602 L262 602 L166 746 L56 746 L-40 602 Z " />
<glyph glyph-name="caron" unicode="&#x2c7;" horiz-adv-x="222" d="M262 746 L170 746 L111 657 L52 746 L-40 746 L56 602 L166 602 L262 746 Z " />
<glyph glyph-name="breve" unicode="&#x2d8;" horiz-adv-x="222" d="M200 749 C194 697 164 675 111 675 C58 675 28 697 22 749 L-36 749 C-30 673 14 607 111 607 C208 607 252 673 258 749 L200 749 Z " />
<glyph glyph-name="dotaccent" unicode="&#x2d9;" horiz-adv-x="222" d="M57 722 L57 614 L165 614 L165 722 L57 722 Z " />
<glyph glyph-name="ring" unicode="&#x2da;" horiz-adv-x="222" d="M9 704 C9 648 55 602 111 602 C167 602 213 648 213 704 C213 760 167 806 111 806 C55 806 9 760 9 704 L9 704 Z M59 704 C59 733 82 756 111 756 C140 756 163 733 163 704 C163 675 140 652 111 652 C82 652 59 675 59 704 L59 704 Z " />
<glyph glyph-name="ogonek" unicode="&#x2db;" horiz-adv-x="222" d="M243 21 C168 8 28 -22 28 -127 C28 -187 72 -219 126 -219 C179 -219 226 -189 268 -159 L249 -123 C225 -140 189 -163 159 -163 C132 -163 110 -147 110 -116 C110 -49 193 -11 243 9 L243 21 Z " />
<glyph glyph-name="tilde" unicode="&#x2dc;" horiz-adv-x="222" d="M218 733 C217 704 207 689 176 689 C155 689 136 700 116 709 C96 718 75 728 51 728 C-16 728 -41 667 -52 610 L4 610 C5 639 15 654 46 654 C67 654 86 645 106 635 C126 625 147 615 171 615 C238 615 263 676 274 733 L218 733 Z " />
<glyph glyph-name="hungarumlaut" unicode="&#x2dd;" horiz-adv-x="222" d="M158 746 L23 746 L-46 602 L33 602 L158 746 Z M334 746 L199 746 L120 602 L203 602 L334 746 Z " />
<glyph glyph-name="endash" unicode="&#x2013;" horiz-adv-x="500" d="M500 233 L500 305 L0 305 L0 233 L500 233 Z " />
<glyph glyph-name="emdash" unicode="&#x2014;" horiz-adv-x="1000" d="M1000 233 L1000 305 L0 305 L0 233 L1000 233 Z " />
<glyph glyph-name="quoteleft" unicode="&#x2018;" horiz-adv-x="222" d="M52 490 L170 490 L170 608 L125 608 L174 732 L121 732 L52 608 L52 490 Z " />
<glyph glyph-name="quoteright" unicode="&#x2019;" horiz-adv-x="222" d="M170 722 L52 722 L52 604 L97 604 L48 480 L101 480 L170 604 L170 722 Z " />
<glyph glyph-name="quotesinglbase" unicode="&#x201a;" horiz-adv-x="222" d="M170 118 L52 118 L52 0 L97 0 L48 -124 L101 -124 L170 0 L170 118 Z " />
<glyph glyph-name="quotedblleft" unicode="&#x201c;" horiz-adv-x="444" d="M70 490 L188 490 L188 608 L143 608 L192 732 L139 732 L70 608 L70 490 Z M255 490 L373 490 L373 608 L328 608 L377 732 L324 732 L255 608 L255 490 Z " />
<glyph glyph-name="quotedblright" unicode="&#x201d;" horiz-adv-x="444" d="M374 722 L256 722 L256 604 L301 604 L252 480 L305 480 L374 604 L374 722 Z M189 722 L71 722 L71 604 L116 604 L67 480 L120 480 L189 604 L189 722 Z " />
<glyph glyph-name="quotedblbase" unicode="&#x201e;" horiz-adv-x="444" d="M374 118 L256 118 L256 0 L301 0 L252 -124 L305 -124 L374 0 L374 118 Z M189 118 L71 118 L71 0 L116 0 L67 -124 L120 -124 L189 0 L189 118 Z " />
<glyph glyph-name="dagger" unicode="&#x2020;" horiz-adv-x="500" d="M434 574 L271 532 L310 732 L190 732 L229 532 L66 574 L66 450 L233 492 L188 323 C208 256 218 116 231 -80 L269 -80 C282 116 292 256 312 323 L267 492 L434 450 L434 574 Z " />
<glyph glyph-name="daggerdbl" unicode="&#x2021;" horiz-adv-x="500" d="M434 574 L271 532 L310 732 L190 732 L229 532 L66 574 L66 450 L233 492 L188 326 L233 160 L66 202 L66 78 L229 120 L190 -80 L310 -80 L271 120 L434 78 L434 202 L267 160 L312 326 L267 492 L434 450 L434 574 Z " />
<glyph glyph-name="bullet" unicode="&#x2022;" horiz-adv-x="500" d="M69 361 C69 261 149 180 249 180 C349 180 430 261 430 361 C430 461 349 541 249 541 C149 541 69 461 69 361 L69 361 Z " />
<glyph glyph-name="ellipsis" unicode="&#x2026;" horiz-adv-x="1000" d="M224 0 L224 118 L110 118 L110 0 L224 0 Z M557 0 L557 118 L443 118 L443 0 L557 0 Z M890 0 L890 118 L776 118 L776 0 L890 0 Z " />
<glyph glyph-name="perthousand" unicode="&#x2030;" horiz-adv-x="1000" d="M14 572 C14 489 81 422 164 422 C247 422 314 489 314 572 C314 655 247 722 164 722 C81 722 14 655 14 572 L14 572 Z M94 572 C94 611 125 642 164 642 C203 642 234 611 234 572 C234 533 203 502 164 502 C125 502 94 533 94 572 L94 572 Z M332 150 C332 67 399 0 482 0 C565 0 632 67 632 150 C632 233 565 300 482 300 C399 300 332 233 332 150 L332 150 Z M412 150 C412 189 443 220 482 220 C521 220 552 189 552 150 C552 111 521 80 482 80 C443 80 412 111 412 150 L412 150 Z M686 150 C686 67 753 0 836 0 C919 0 986 67 986 150 C986 233 919 300 836 300 C753 300 686 233 686 150 L686 150 Z M766 150 C766 189 797 220 836 220 C875 220 906 189 906 150 C906 111 875 80 836 80 C797 80 766 111 766 150 L766 150 Z M96 -10 L166 -10 L577 732 L507 732 L96 -10 Z " />
<glyph glyph-name="guilsinglleft" unicode="&#x2039;" horiz-adv-x="333" d="M160 269 L277 423 L178 423 L63 270 L178 115 L274 115 L160 269 Z " />
<glyph glyph-name="guilsinglright" unicode="&#x203a;" horiz-adv-x="333" d="M59 115 L155 115 L270 270 L155 423 L56 423 L173 269 L59 115 Z " />
<glyph glyph-name="fraction" unicode="&#x2044;" horiz-adv-x="167" d="M-76 -10 L334 732 L243 732 L-167 -10 L-76 -10 Z " />
<glyph glyph-name="trademark" unicode="&#x2122;" horiz-adv-x="990" d="M559 722 L423 722 L423 310 L515 310 L515 612 L517 612 L627 310 L696 310 L806 612 L808 612 L808 310 L900 310 L900 722 L765 722 L662 451 L559 722 Z M370 722 L34 722 L34 647 L154 647 L154 310 L250 310 L250 647 L370 647 L370 722 Z " />
<glyph glyph-name="minus" unicode="&#x2212;" horiz-adv-x="600" d="M553 204 L553 302 L47 302 L47 204 L553 204 Z " />
<glyph glyph-name="fi" unicode="&#xfb01;" horiz-adv-x="444" d="M62 0 L174 0 L174 446 L238 446 L238 538 L174 538 L174 604 C174 630 184 640 211 640 L243 640 L243 732 L187 732 C108 732 62 692 62 605 L62 538 L-4 538 L-4 446 L62 446 L62 0 Z M389 0 L389 538 L277 538 L277 0 L389 0 Z M389 620 L389 722 L277 722 L277 620 L389 620 Z " />
<glyph glyph-name="fl" unicode="&#xfb02;" horiz-adv-x="444" d="M62 0 L174 0 L174 446 L238 446 L238 538 L174 538 L174 604 C174 630 184 640 211 640 L243 640 L243 732 L187 732 C108 732 62 692 62 605 L62 538 L-4 538 L-4 446 L62 446 L62 0 Z M389 0 L389 722 L277 722 L277 0 L389 0 Z " />
</font>
</svg>
